<svg xmlns="http://www.w3.org/2000/svg" viewBox="0 0 420 580" role="img" aria-label="Goblin Batedor"><defs><radialGradient id="bg"><stop stop-color="#59412b"/><stop offset=".65" stop-color="#19111d"/><stop offset="1" stop-color="#06070b"/></radialGradient><linearGradient id="armor"><stop stop-color="#59412b"/><stop offset=".55" stop-color="#13121a"/><stop offset="1" stop-color="#d5ba85"/></linearGradient></defs><rect width="420" height="580" fill="url(#bg)"/><g fill="none" stroke="#d5ba85" stroke-opacity=".3"><circle cx="210" cy="228" r="159"/><circle cx="210" cy="228" r="176" stroke-dasharray="9 12"/></g><circle cx="389" cy="290" r="3" fill="#d5ba85" opacity=".6"/><circle cx="66" cy="421" r="1.3" fill="#d5ba85" opacity=".6"/><circle cx="163" cy="12" r="1.3" fill="#d5ba85" opacity=".6"/><circle cx="260" cy="143" r="1.3" fill="#d5ba85" opacity=".6"/><circle cx="357" cy="274" r="1.3" fill="#d5ba85" opacity=".6"/><circle cx="34" cy="405" r="1.3" fill="#d5ba85" opacity=".6"/><circle cx="131" cy="536" r="1.3" fill="#d5ba85" opacity=".6"/><circle cx="228" cy="127" r="3" fill="#d5ba85" opacity=".6"/><circle cx="325" cy="258" r="1.3" fill="#d5ba85" opacity=".6"/><circle cx="2" cy="389" r="1.3" fill="#d5ba85" opacity=".6"/><circle cx="99" cy="520" r="1.3" fill="#d5ba85" opacity=".6"/><circle cx="196" cy="111" r="1.3" fill="#d5ba85" opacity=".6"/><circle cx="293" cy="242" r="1.3" fill="#d5ba85" opacity=".6"/><circle cx="390" cy="373" r="1.3" fill="#d5ba85" opacity=".6"/><circle cx="67" cy="504" r="3" fill="#d5ba85" opacity=".6"/><circle cx="164" cy="95" r="1.3" fill="#d5ba85" opacity=".6"/><circle cx="261" cy="226" r="1.3" fill="#d5ba85" opacity=".6"/><circle cx="358" cy="357" r="1.3" fill="#d5ba85" opacity=".6"/><circle cx="35" cy="488" r="1.3" fill="#d5ba85" opacity=".6"/><circle cx="132" cy="79" r="1.3" fill="#d5ba85" opacity=".6"/><circle cx="229" cy="210" r="1.3" fill="#d5ba85" opacity=".6"/><circle cx="326" cy="341" r="3" fill="#d5ba85" opacity=".6"/><circle cx="3" cy="472" r="1.3" fill="#d5ba85" opacity=".6"/><circle cx="100" cy="63" r="1.3" fill="#d5ba85" opacity=".6"/><circle cx="197" cy="194" r="1.3" fill="#d5ba85" opacity=".6"/><circle cx="294" cy="325" r="1.3" fill="#d5ba85" opacity=".6"/><circle cx="391" cy="456" r="1.3" fill="#d5ba85" opacity=".6"/><circle cx="68" cy="47" r="1.3" fill="#d5ba85" opacity=".6"/><circle cx="165" cy="178" r="3" fill="#d5ba85" opacity=".6"/><circle cx="262" cy="309" r="1.3" fill="#d5ba85" opacity=".6"/><circle cx="359" cy="440" r="1.3" fill="#d5ba85" opacity=".6"/><circle cx="36" cy="31" r="1.3" fill="#d5ba85" opacity=".6"/><circle cx="133" cy="162" r="1.3" fill="#d5ba85" opacity=".6"/><circle cx="230" cy="293" r="1.3" fill="#d5ba85" opacity=".6"/><circle cx="327" cy="424" r="1.3" fill="#d5ba85" opacity=".6"/><circle cx="4" cy="15" r="3" fill="#d5ba85" opacity=".6"/><circle cx="101" cy="146" r="1.3" fill="#d5ba85" opacity=".6"/><path d="M166 257 Q128 271 98 420 L163 398 L189 313 L189 420 L228 420 L232 320 L256 399 L322 422 Q296 272 250 255Z" fill="url(#armor)" stroke="#d5ba85" stroke-width="3"/><path d="M170 156 Q202 114 247 157 L252 220 Q247 257 207 266 Q174 251 163 218Z" fill="url(#armor)" stroke="#d5ba85" stroke-width="4"/><path d="M173 203 L200 207 L192 223 L176 218 M218 207 L248 203 L245 218 L224 223" fill="#d5ba85"/><path d="M193 248 Q209 236 229 246" fill="none" stroke="#d5ba85" stroke-width="3"/><path d="M0 426 Q210 379 420 426 V580 H0Z" fill="#0b090e" opacity=".94"/><text x="210" y="467" fill="#d5ba85" text-anchor="middle" font-size="12" letter-spacing="4" font-family="serif">HURRAS · NEXALIS</text><text x="210" y="506" fill="#f6ead5" text-anchor="middle" font-size="21" font-family="serif" font-weight="bold">Goblin Batedor</text><text x="210" y="543" fill="#d5ba85" font-size="12" font-family="sans-serif" text-anchor="middle">HUMANOIDE · NIVEL 2</text></svg>