<svg xmlns="http://www.w3.org/2000/svg" role="img" aria-label="Raiz Ancestral" viewBox="0 0 800 1000"><defs><radialGradient id="mist"><stop stop-color="#81b878" stop-opacity=".39"/><stop offset="1" stop-color="#173927"/></radialGradient><linearGradient id="body"><stop stop-color="#81b878"/><stop offset=".57" stop-color="#173927"/><stop offset="1" stop-color="#81b878"/></linearGradient></defs><rect width="800" height="1000" fill="#090914"/><rect x="14" y="14" width="772" height="972" rx="18" fill="url(#mist)" stroke="#81b878" stroke-width="4"/><circle cx="400" cy="448" r="296" stroke="#81b878" stroke-width="3" opacity=".4" fill="none"/><g><circle cx="59" cy="508" r="3" fill="#81b878" opacity=".6"/><circle cx="172" cy="587" r="1.5" fill="#81b878" opacity=".6"/><circle cx="285" cy="666" r="1.5" fill="#81b878" opacity=".6"/><circle cx="398" cy="745" r="1.5" fill="#81b878" opacity=".6"/><circle cx="511" cy="36" r="1.5" fill="#81b878" opacity=".6"/><circle cx="624" cy="115" r="3" fill="#81b878" opacity=".6"/><circle cx="737" cy="194" r="1.5" fill="#81b878" opacity=".6"/><circle cx="102" cy="273" r="1.5" fill="#81b878" opacity=".6"/><circle cx="215" cy="352" r="1.5" fill="#81b878" opacity=".6"/><circle cx="328" cy="431" r="1.5" fill="#81b878" opacity=".6"/><circle cx="441" cy="510" r="3" fill="#81b878" opacity=".6"/><circle cx="554" cy="589" r="1.5" fill="#81b878" opacity=".6"/><circle cx="667" cy="668" r="1.5" fill="#81b878" opacity=".6"/><circle cx="32" cy="747" r="1.5" fill="#81b878" opacity=".6"/><circle cx="145" cy="38" r="1.5" fill="#81b878" opacity=".6"/><circle cx="258" cy="117" r="3" fill="#81b878" opacity=".6"/><circle cx="371" cy="196" r="1.5" fill="#81b878" opacity=".6"/><circle cx="484" cy="275" r="1.5" fill="#81b878" opacity=".6"/><circle cx="597" cy="354" r="1.5" fill="#81b878" opacity=".6"/><circle cx="710" cy="433" r="1.5" fill="#81b878" opacity=".6"/><circle cx="75" cy="512" r="3" fill="#81b878" opacity=".6"/><circle cx="188" cy="591" r="1.5" fill="#81b878" opacity=".6"/><circle cx="301" cy="670" r="1.5" fill="#81b878" opacity=".6"/><circle cx="414" cy="749" r="1.5" fill="#81b878" opacity=".6"/><circle cx="527" cy="40" r="1.5" fill="#81b878" opacity=".6"/><circle cx="640" cy="119" r="3" fill="#81b878" opacity=".6"/><circle cx="753" cy="198" r="1.5" fill="#81b878" opacity=".6"/><circle cx="118" cy="277" r="1.5" fill="#81b878" opacity=".6"/></g><g fill="url(#body)" stroke="#81b878" stroke-width="9" stroke-linecap="round" stroke-linejoin="round"><path d="M370 684L336 534 260 459 290 364 331 395 393 261 447 390 494 328 523 447 479 530 445 684Z"/><path d="M331 531L170 440M445 525L612 422M393 302L384 184M345 654L207 737M452 657L571 745" stroke="#81b878" stroke-width="22" fill="none"/></g><circle cx="361" cy="414" r="8" fill="#81b878"/><circle cx="447" cy="414" r="8" fill="#81b878"/><path d="M342 465Q402 478 456 465" fill="none" stroke="#81b878" stroke-width="9"/><rect x="38" y="790" width="724" height="168" rx="8" fill="#0d0d14" opacity=".94" stroke="#81b878" stroke-width="2"/><text x="400" y="846" text-anchor="middle" fill="#f6e7da" font-family="Georgia,serif" font-weight="bold" font-size="36" textLength="660" lengthAdjust="spacingAndGlyphs">Raiz Ancestral</text><text x="400" y="892" text-anchor="middle" fill="#81b878" font-family="Arial,sans-serif" font-size="25">Planta · Nível 19</text><text x="400" y="935" text-anchor="middle" fill="#c0a89b" font-family="Arial" font-size="17">HURRAS · BESTIÁRIO DE NEXALIS</text></svg>