<svg xmlns="http://www.w3.org/2000/svg" role="img" aria-label="Lobo" viewBox="0 0 800 1000"><defs><radialGradient id="mist"><stop stop-color="#81b878" stop-opacity=".39"/><stop offset="1" stop-color="#173927"/></radialGradient><linearGradient id="body"><stop stop-color="#81b878"/><stop offset=".57" stop-color="#173927"/><stop offset="1" stop-color="#81b878"/></linearGradient></defs><rect width="800" height="1000" fill="#090914"/><rect x="14" y="14" width="772" height="972" rx="18" fill="url(#mist)" stroke="#81b878" stroke-width="4"/><circle cx="400" cy="448" r="296" stroke="#81b878" stroke-width="3" opacity=".4" fill="none"/><g><circle cx="430" cy="685" r="3" fill="#81b878" opacity=".6"/><circle cx="543" cy="764" r="1.5" fill="#81b878" opacity=".6"/><circle cx="656" cy="55" r="1.5" fill="#81b878" opacity=".6"/><circle cx="769" cy="134" r="1.5" fill="#81b878" opacity=".6"/><circle cx="134" cy="213" r="1.5" fill="#81b878" opacity=".6"/><circle cx="247" cy="292" r="3" fill="#81b878" opacity=".6"/><circle cx="360" cy="371" r="1.5" fill="#81b878" opacity=".6"/><circle cx="473" cy="450" r="1.5" fill="#81b878" opacity=".6"/><circle cx="586" cy="529" r="1.5" fill="#81b878" opacity=".6"/><circle cx="699" cy="608" r="1.5" fill="#81b878" opacity=".6"/><circle cx="64" cy="687" r="3" fill="#81b878" opacity=".6"/><circle cx="177" cy="766" r="1.5" fill="#81b878" opacity=".6"/><circle cx="290" cy="57" r="1.5" fill="#81b878" opacity=".6"/><circle cx="403" cy="136" r="1.5" fill="#81b878" opacity=".6"/><circle cx="516" cy="215" r="1.5" fill="#81b878" opacity=".6"/><circle cx="629" cy="294" r="3" fill="#81b878" opacity=".6"/><circle cx="742" cy="373" r="1.5" fill="#81b878" opacity=".6"/><circle cx="107" cy="452" r="1.5" fill="#81b878" opacity=".6"/><circle cx="220" cy="531" r="1.5" fill="#81b878" opacity=".6"/><circle cx="333" cy="610" r="1.5" fill="#81b878" opacity=".6"/><circle cx="446" cy="689" r="3" fill="#81b878" opacity=".6"/><circle cx="559" cy="768" r="1.5" fill="#81b878" opacity=".6"/><circle cx="672" cy="59" r="1.5" fill="#81b878" opacity=".6"/><circle cx="37" cy="138" r="1.5" fill="#81b878" opacity=".6"/><circle cx="150" cy="217" r="1.5" fill="#81b878" opacity=".6"/><circle cx="263" cy="296" r="3" fill="#81b878" opacity=".6"/><circle cx="376" cy="375" r="1.5" fill="#81b878" opacity=".6"/><circle cx="489" cy="454" r="1.5" fill="#81b878" opacity=".6"/></g><g fill="url(#body)" stroke="#81b878" stroke-width="9" stroke-linecap="round" stroke-linejoin="round"><path d="M125 535Q85 443 158 389L236 367 279 314 319 366Q401 342 460 404L532 415Q576 435 593 510L562 608 532 616 517 525 460 538 435 630 388 630 396 544 294 536 249 625 207 625 222 512Q165 545 125 535Z"/><path d="M246 363l-23-82 76 54 44-63-9 91"/><path d="M530 415Q600 350 558 276" fill="none" stroke="#81b878" stroke-width="28"/></g><circle cx="361" cy="414" r="8" fill="#81b878"/><circle cx="447" cy="414" r="8" fill="#81b878"/><path d="M342 465Q402 551 456 465" fill="none" stroke="#81b878" stroke-width="9"/><rect x="38" y="790" width="724" height="168" rx="8" fill="#0d0d14" opacity=".94" stroke="#81b878" stroke-width="2"/><text x="400" y="846" text-anchor="middle" fill="#f6e7da" font-family="Georgia,serif" font-weight="bold" font-size="36" textLength="660" lengthAdjust="spacingAndGlyphs">Lobo</text><text x="400" y="892" text-anchor="middle" fill="#81b878" font-family="Arial,sans-serif" font-size="25">Animal · Nível 2</text><text x="400" y="935" text-anchor="middle" fill="#c0a89b" font-family="Arial" font-size="17">HURRAS · BESTIÁRIO DE NEXALIS</text></svg>