<svg xmlns="http://www.w3.org/2000/svg" role="img" aria-label="Lodo Alquímico" viewBox="0 0 800 1000"><defs><radialGradient id="mist"><stop stop-color="#bdde6c" stop-opacity=".39"/><stop offset="1" stop-color="#293c25"/></radialGradient><linearGradient id="body"><stop stop-color="#bdde6c"/><stop offset=".57" stop-color="#293c25"/><stop offset="1" stop-color="#bdde6c"/></linearGradient></defs><rect width="800" height="1000" fill="#090914"/><rect x="14" y="14" width="772" height="972" rx="18" fill="url(#mist)" stroke="#bdde6c" stroke-width="4"/><circle cx="400" cy="448" r="296" stroke="#bdde6c" stroke-width="3" opacity=".4" fill="none"/><g><circle cx="662" cy="273" r="3" fill="#bdde6c" opacity=".6"/><circle cx="27" cy="352" r="1.5" fill="#bdde6c" opacity=".6"/><circle cx="140" cy="431" r="1.5" fill="#bdde6c" opacity=".6"/><circle cx="253" cy="510" r="1.5" fill="#bdde6c" opacity=".6"/><circle cx="366" cy="589" r="1.5" fill="#bdde6c" opacity=".6"/><circle cx="479" cy="668" r="3" fill="#bdde6c" opacity=".6"/><circle cx="592" cy="747" r="1.5" fill="#bdde6c" opacity=".6"/><circle cx="705" cy="38" r="1.5" fill="#bdde6c" opacity=".6"/><circle cx="70" cy="117" r="1.5" fill="#bdde6c" opacity=".6"/><circle cx="183" cy="196" r="1.5" fill="#bdde6c" opacity=".6"/><circle cx="296" cy="275" r="3" fill="#bdde6c" opacity=".6"/><circle cx="409" cy="354" r="1.5" fill="#bdde6c" opacity=".6"/><circle cx="522" cy="433" r="1.5" fill="#bdde6c" opacity=".6"/><circle cx="635" cy="512" r="1.5" fill="#bdde6c" opacity=".6"/><circle cx="748" cy="591" r="1.5" fill="#bdde6c" opacity=".6"/><circle cx="113" cy="670" r="3" fill="#bdde6c" opacity=".6"/><circle cx="226" cy="749" r="1.5" fill="#bdde6c" opacity=".6"/><circle cx="339" cy="40" r="1.5" fill="#bdde6c" opacity=".6"/><circle cx="452" cy="119" r="1.5" fill="#bdde6c" opacity=".6"/><circle cx="565" cy="198" r="1.5" fill="#bdde6c" opacity=".6"/><circle cx="678" cy="277" r="3" fill="#bdde6c" opacity=".6"/><circle cx="43" cy="356" r="1.5" fill="#bdde6c" opacity=".6"/><circle cx="156" cy="435" r="1.5" fill="#bdde6c" opacity=".6"/><circle cx="269" cy="514" r="1.5" fill="#bdde6c" opacity=".6"/><circle cx="382" cy="593" r="1.5" fill="#bdde6c" opacity=".6"/><circle cx="495" cy="672" r="3" fill="#bdde6c" opacity=".6"/><circle cx="608" cy="751" r="1.5" fill="#bdde6c" opacity=".6"/><circle cx="721" cy="42" r="1.5" fill="#bdde6c" opacity=".6"/></g><g fill="url(#body)" stroke="#bdde6c" stroke-width="9" stroke-linecap="round" stroke-linejoin="round"><path d="M301 673L275 487 333 383 361 275 429 253 475 382 526 483 489 671Z"/><path d="M307 418L210 315M484 419L583 315" fill="none" stroke="#bdde6c" stroke-width="25"/></g><circle cx="361" cy="414" r="8" fill="#bdde6c"/><circle cx="447" cy="414" r="8" fill="#bdde6c"/><path d="M342 465Q402 543 456 465" fill="none" stroke="#bdde6c" stroke-width="9"/><rect x="38" y="790" width="724" height="168" rx="8" fill="#0d0d14" opacity=".94" stroke="#bdde6c" stroke-width="2"/><text x="400" y="846" text-anchor="middle" fill="#f6e7da" font-family="Georgia,serif" font-weight="bold" font-size="36" textLength="660" lengthAdjust="spacingAndGlyphs">Lodo Alquímico</text><text x="400" y="892" text-anchor="middle" fill="#bdde6c" font-family="Arial,sans-serif" font-size="25">Aberração · Nível 3</text><text x="400" y="935" text-anchor="middle" fill="#c0a89b" font-family="Arial" font-size="17">HURRAS · BESTIÁRIO DE NEXALIS</text></svg>